<svg width="200" height="53" viewBox="0 0 200 53" fill="none" xmlns="http://www.w3.org/2000/svg">
<path d="M0 14.3804H14.5951V51.017H19.922V14.3804H34.5171V9.88281H0V14.3804Z" fill="#95B1B5"/>
<path d="M42.4562 42.9731V9.88281H37.2123V51.017H42.2245L65.3586 17.9243V51.017H70.6879V9.88281H65.5928L42.4562 42.9731Z" fill="#95B1B5"/>
<path d="M91.6342 21.6072C91.6342 26.4828 94.6025 30.1609 99.7342 31.6267C95.7854 33.1731 95.1513 37.1584 94.4317 41.5609C93.7317 46.2462 93.4952 46.8389 92.3147 46.8389C90.7122 46.8389 89.2854 46.5389 89.2854 46.5389V51.1511C89.2854 51.1511 91.1391 51.5804 92.7317 51.5804C97.7927 51.5804 98.5952 47.9853 99.5805 41.6243C100.31 36.5828 101.588 33.9121 106.554 33.9121H118.046V51.017H123.376V9.88281H106.22C96.9976 9.88281 91.6293 14.2267 91.6293 21.6072H91.6342ZM118.054 14.2999V29.4901H106.059C98.7049 29.4901 97.161 25.3877 97.161 21.8804C97.161 16.9731 100.529 14.2999 106.644 14.2999H118.054Z" fill="#95B1B5"/>
<path d="M162.02 9.88281H155.856L141.866 28.1584H134.744V9.88281H129.498V51.017H134.744V32.6584H141.866L155.939 51.017H162.103L146.403 30.4096L162.02 9.88281Z" fill="#95B1B5"/>
<path d="M186.342 43.3633H180.154V51.0145H186.342V43.3633Z" fill="#95B1B5"/>
<path d="M185.444 40.8927H181.054C181.054 31.6902 180.183 25.9098 179.607 22.0829C179.054 18.4 178.775 16.5512 180.027 15.0976C181.075 13.8781 182.622 13.8781 183.129 13.8781C186.366 13.8781 188.536 17.9317 190.634 21.8512C190.983 22.5024 191.407 23.2951 191.766 23.9073C192.68 22.5659 193.766 18.9732 193.766 15.6244C193.766 6.34146 188.044 4.39269 183.244 4.39269C178.695 4.39269 174.885 6.22683 172.79 9.42439C170.539 12.8634 170.51 17.5293 172.707 22.5659L168.683 24.322C165.873 17.8829 166.029 11.739 169.117 7.01952C172.036 2.56098 177.185 0.00244141 183.241 0.00244141C192.578 0.00244141 198.154 5.8439 198.154 15.6244C198.154 19.9268 196.471 28.8146 191.273 28.8146C189.38 28.8146 188.451 27.0781 186.761 23.9244C186.071 22.6341 184.622 19.9317 183.575 18.7634C183.654 19.5024 183.8 20.4756 183.944 21.4317C184.502 25.1463 185.439 31.3634 185.439 40.8927H185.444Z" fill="#95B1B5"/>
</svg>
